#!OML:ASF F:\VICON\USERDATA\INSTALL\rory3\rory3.ASF
:FULLY-SPECIFIED
:DEGREES
190
root -0.0188 17.1185 -32.404 3.36327 0.0506 1.79784
lowerback 19.4203 -0.958737 -4.48781
upperback 2.49866 -2.32454 -1.44109
thorax -8.04609 -0.997927 1.59255
lowerneck -1.90342 0.908872 -1.72463
upperneck -13.8255 1.36162 1.51065
head -4.22047 0.695882 0.765273
rclavicle 1.13307e-014 -9.54166e-015
rhumerus -48.9786 3.83573 -83.3947
rradius 77.7932
rwrist 2.01061
rhand -37.5969 33.2817
rfingers 7.12502
rthumb -10.6505 3.57161
lclavicle 1.13307e-014 -9.54166e-015
lhumerus -21.3235 -17.9621 87.9163
lradius 111.314
lwrist 26.0174
lhand -37.0775 10.7818
lfingers 7.12502
lthumb -10.1494 40.517
rfemur -27.5545 -6.84465 16.8651
rtibia 113.175
rfoot 10.6598 -9.99813
rtoes 16.3451
lfemur -16.0888 -1.38437 -27.0135
ltibia 43.8924
lfoot -20.8257 0.773469
ltoes -14.603
191
root -0.0188 17.1147 -32.107 3.4056 0.0506 1.83886
lowerback 19.6528 -1.06342 -4.53872
upperback 2.34178 -2.4871 -1.37026
thorax -8.32972 -1.06343 1.7489
lowerneck -2.18139 1.0753 -1.79771
upperneck -13.4898 1.57249 1.39667
head -4.04908 0.808953 0.733531
rclavicle -1.78906e-014 -1.59028e-015
rhumerus -50.1577 3.35452 -82.6781
rradius 77.7227
rwrist 1.33041
rhand -37.4056 33.3446
rfingers 7.12502
rthumb -10.4659 3.62517
lclavicle -1.78906e-014 -1.59028e-015
lhumerus -19.1726 -17.9725 87.3777
lradius 111.487
lwrist 25.8335
lhand -36.1416 10.8658
lfingers 7.12502
lthumb -9.24639 40.643
rfemur -30.8709 -6.47484 17.1831
rtibia 113.414
rfoot 10.0542 -9.92069
rtoes 13.3757
lfemur -13.8734 -0.994412 -27.2006
ltibia 43.2142
lfoot -21.0951 0.869975
ltoes -15.7684
192
root -0.0188 17.1325 -31.81 3.4259 0.0506 2.2134
lowerback 19.493 -1.12319 -4.85211
upperback 2.40372 -2.62995 -1.484
thorax -8.15783 -1.12939 1.83352
lowerneck -2.51837 1.21608 -1.58582
upperneck -13.391 1.7462 1.19052
head -3.9467 0.893609 0.624166
rclavicle 2.32578e-014 2.38542e-015
rhumerus -50.9895 2.78677 -82.1571
rradius 77.6884
rwrist 0.7368
rhand -37.4593 32.6657
rfingers 7.12502
rthumb -10.5177 2.94888
lclavicle 2.32578e-014 2.38542e-015
lhumerus -16.8686 -18.0385 86.6555
lradius 111.524
lwrist 25.4489
lhand -35.5958 10.5741
lfingers 7.12502
lthumb -8.71975 40.374
rfemur -33.8478 -6.02189 17.0481
rtibia 113.05
rfoot 11.2114 -9.07444
rtoes 16.8984
lfemur -11.4347 -0.702153 -27.7487
ltibia 42.1118
lfoot -20.8026 1.09381
ltoes -17.1854
193
root -0.0187 17.1748 -31.513 3.41362 0.0506 2.62673
lowerback 19.266 -1.25293 -5.0834
upperback 2.60511 -2.83991 -1.66776
thorax -7.79944 -1.23913 1.80712
lowerneck -3.43259 1.35278 -1.2568
upperneck -12.9578 1.92283 1.03508
head -3.61615 0.973968 0.516201
rclavicle -3.24019e-014 2.38542e-015
rhumerus -51.4758 2.17693 -81.8319
rradius 77.5172
rwrist 0.624811
rhand -38.6765 32.2702
rfingers 7.12502
rthumb -11.6917 2.61648
lclavicle -3.24019e-014 2.38542e-015
lhumerus -14.5855 -18.2842 85.8705
lradius 111.487
lwrist 25.2095
lhand -36.3789 8.59208
lfingers 7.12502
lthumb -9.47542 38.3591
rfemur -36.2322 -5.64446 16.8697
rtibia 111.98
rfoot 10.8995 -8.65063
rtoes 19.5927
lfemur -8.81249 -0.466299 -28.3159
ltibia 40.6784
lfoot -20.053 1.18377
ltoes -19.5618
194
root -0.0187 17.2304 -31.2161 3.43574 0.0506 3.05224
lowerback 18.9993 -1.51404 -5.43969
upperback 2.57567 -3.24222 -1.71225
thorax -7.64349 -1.42736 2.04923
lowerneck -3.43841 1.59229 -1.29815
upperneck -12.79 2.23639 0.962497
head -3.55982 1.13373 0.493147
rclavicle -9.14409e-015 -2.78299e-014
rhumerus -52.4334 2.1015 -81.4909
rradius 77.5677
rwrist 0.649556
rhand -40.168 32.0158
rfingers 7.12502
rthumb -13.1298 2.44919
lclavicle -9.14409e-015 -2.78299e-014
lhumerus -13.221 -18.1562 85.5539
lradius 111.698
lwrist 25.2216
lhand -37.3126 6.62142
lfingers 7.12502
lthumb -10.3762 36.3454
rfemur -38.2425 -5.34693 16.6772
rtibia 110.361
rfoot 9.38073 -8.03162
rtoes 19.861
lfemur -6.08702 -0.327993 -28.8115
ltibia 39.0088
lfoot -18.7446 0.91341
ltoes -22.9251
